<?xml version="1.0" standalone="no"?>
<!DOCTYPE svg PUBLIC "-//W3C//DTD SVG 20010904//EN"
 "http://www.w3.org/TR/2001/REC-SVG-20010904/DTD/svg10.dtd">
<svg version="1.0" xmlns="http://www.w3.org/2000/svg"
 width="941.000000pt" height="941.000000pt" viewBox="0 0 941.000000 941.000000"
 preserveAspectRatio="xMidYMid meet">
<metadata>
Created by potrace 1.14, written by Peter Selinger 2001-2017
</metadata>
<g transform="translate(0.000000,941.000000) scale(0.100000,-0.100000)"
fill="#000000" stroke="none">
<path d="M580 4786 l0 -3626 210 0 210 0 -1 2113 c-1 1161 -5 2157 -10 2212
-4 55 -11 147 -14 205 -3 58 -8 121 -10 140 -2 19 -7 80 -10 135 -3 55 -8 120
-10 145 -2 25 -7 90 -10 145 -3 55 -8 120 -10 145 -2 25 -7 81 -10 125 -3 44
-10 145 -15 225 -6 80 -12 181 -15 225 -3 44 -8 107 -10 140 -3 33 -7 103 -10
155 -3 52 -8 118 -10 145 -3 28 -7 93 -10 145 -3 52 -8 111 -10 130 -8 71 -17
295 -12 290 4 -4 25 -108 42 -207 3 -18 7 -48 10 -65 3 -18 8 -40 10 -48 2 -8
6 -33 10 -55 3 -22 28 -175 56 -340 27 -165 52 -311 54 -325 62 -380 148 -817
235 -1185 63 -267 162 -692 165 -705 7 -31 346 -1487 357 -1533 l12 -48 63 2
c61 2 62 3 68 33 7 31 137 591 176 756 36 151 47 201 114 490 36 157 79 341
95 410 207 869 290 1251 349 1615 5 33 41 240 80 460 38 220 72 416 76 435 13
79 37 195 42 200 4 5 -2 -141 -12 -260 -3 -30 -7 -91 -10 -135 -5 -81 -11
-164 -20 -290 -15 -209 -23 -316 -30 -425 -3 -47 -8 -105 -10 -130 -4 -42 -9
-106 -20 -275 -3 -38 -8 -99 -10 -135 -3 -36 -7 -96 -10 -135 -18 -267 -37
-515 -42 -545 -3 -19 -8 -1013 -10 -2208 l-4 -2172 216 0 215 0 0 3626 0 3625
-190 -2 c-105 -1 -193 -6 -195 -10 -4 -6 -76 -314 -120 -514 -18 -79 -86 -380
-180 -795 -42 -184 -87 -382 -100 -440 -27 -121 -189 -835 -275 -1210 -32
-140 -83 -367 -114 -505 -31 -137 -60 -259 -65 -270 -9 -23 -3 -46 -211 850
-66 286 -131 565 -144 620 -14 55 -43 181 -66 280 -40 175 -66 286 -95 410 -8
33 -40 168 -70 300 -31 132 -86 366 -122 520 -76 326 -127 546 -153 664 -10
46 -24 87 -30 91 -7 4 -95 8 -196 9 l-184 2 0 -3625z"/>
<path d="M3660 4785 l0 -3625 745 0 745 0 0 215 0 215 -525 0 -525 0 0 1510 0
1510 475 0 475 0 0 215 0 215 -475 0 -475 0 0 1470 0 1470 510 0 510 0 0 215
0 215 -730 0 -730 0 0 -3625z"/>
<path d="M5630 4785 l0 -3625 730 0 730 0 0 230 0 230 -509 0 -509 0 3 3395 4
3395 -225 0 -224 0 0 -3625z"/>
<path d="M7540 4785 l0 -3625 730 0 730 0 0 230 0 230 -505 0 -505 0 0 3395 0
3395 -225 0 -225 0 0 -3625z"/>
</g>
</svg>
